<svg viewBox="0 0 4800 6000" xmlns="http://www.w3.org/2000/svg">
  <defs>
    <!-- AEOLITECH Brand Gradients -->
    <linearGradient id="aeoliCyan" x1="0%" y1="0%" x2="100%" y2="100%">
      <stop offset="0%" style="stop-color:#00d4ff;stop-opacity:1" />
      <stop offset="100%" style="stop-color:#00a8cc;stop-opacity:1" />
    </linearGradient>
    
    <linearGradient id="aeoliNavy" x1="0%" y1="0%" x2="0%" y2="100%">
      <stop offset="0%" style="stop-color:#1a365d;stop-opacity:1" />
      <stop offset="100%" style="stop-color:#0f1f3a;stop-opacity:1" />
    </linearGradient>
    
    <linearGradient id="premiumGrad" x1="0%" y1="0%" x2="100%" y2="0%">
      <stop offset="0%" style="stop-color:#1a365d;stop-opacity:1" />
      <stop offset="50%" style="stop-color:#00d4ff;stop-opacity:1" />
      <stop offset="100%" style="stop-color:#1a365d;stop-opacity:1" />
    </linearGradient>
    
    <linearGradient id="cortexGrad" x1="0%" y1="0%" x2="100%" y2="100%">
      <stop offset="0%" style="stop-color:#3182ce;stop-opacity:1" />
      <stop offset="100%" style="stop-color:#1a365d;stop-opacity:1" />
    </linearGradient>
  </defs>
  
  <!-- Premium Background -->
  <rect width="4800" height="6000" fill="#FFFFFF"/>
  
  <!-- AEOLITECH Logo Suite: 20 Premium Designs -->
  <!-- Grid: 4 columns x 5 rows -->
  
  <!-- Row 1: AI Neural Network Concepts -->
  <!-- 1. PolicyCortex Brain - Neural pathways forming an A -->
  <g transform="translate(150, 150)">
    <g transform="scale(1.5)">
      <!-- Neural A shape -->
      <path d="M 50 20 L 35 70 L 42 70 L 46 55 L 54 55 L 58 70 L 65 70 Z" fill="#1a365d"/>
      <!-- Neural nodes -->
      <circle cx="50" cy="20" r="4" fill="#00d4ff"/>
      <circle cx="40" cy="45" r="3" fill="#1a365d"/>
      <circle cx="60" cy="45" r="3" fill="#1a365d"/>
      <circle cx="35" cy="70" r="3" fill="#1a365d"/>
      <circle cx="65" cy="70" r="3" fill="#1a365d"/>
      <!-- Connections -->
      <path d="M 50 20 L 40 45 M 50 20 L 60 45 M 40 45 L 35 70 M 60 45 L 65 70" 
            stroke="#00d4ff" stroke-width="1" opacity="0.5"/>
      <text x="85" y="65" font-family="'Inter', -apple-system, sans-serif" 
            font-size="32" font-weight="600" fill="#1a365d">AEOLITECH</text>
    </g>
  </g>
  
  <!-- 2. Cloud Cortex - AI brain in cloud formation -->
  <g transform="translate(1050, 150)">
    <g transform="scale(1.5)">
      <!-- Cloud shape with neural core -->
      <path d="M 25 50 Q 25 35, 40 35 Q 45 20, 60 20 Q 75 20, 80 35 Q 95 35, 95 50 Q 95 65, 80 65 L 40 65 Q 25 65, 25 50" 
            fill="#1a365d"/>
      <!-- AI cortex pattern -->
      <circle cx="60" cy="45" r="8" fill="#FFFFFF"/>
      <circle cx="60" cy="45" r="5" fill="#00d4ff"/>
      <circle cx="50" cy="40" r="2" fill="#FFFFFF"/>
      <circle cx="70" cy="40" r="2" fill="#FFFFFF"/>
      <circle cx="60" cy="52" r="2" fill="#FFFFFF"/>
      <text x="110" y="60" font-family="'SF Pro Display', sans-serif" 
            font-size="30" font-weight="500" fill="#1a365d">AEOLITECH</text>
    </g>
  </g>
  
  <!-- 3. Zero Trust Shield - Security focus -->
  <g transform="translate(1950, 150)">
    <g transform="scale(1.5)">
      <!-- Shield with network nodes -->
      <path d="M 50 15 L 70 25 L 70 50 Q 70 65, 50 75 Q 30 65, 30 50 L 30 25 Z" fill="#1a365d"/>
      <!-- Zero Trust network -->
      <circle cx="50" cy="40" r="10" fill="none" stroke="#00d4ff" stroke-width="2"/>
      <circle cx="50" cy="40" r="4" fill="#00d4ff"/>
      <circle cx="50" cy="30" r="2" fill="#FFFFFF"/>
      <circle cx="60" cy="40" r="2" fill="#FFFFFF"/>
      <circle cx="50" cy="50" r="2" fill="#FFFFFF"/>
      <circle cx="40" cy="40" r="2" fill="#FFFFFF"/>
      <text x="85" y="60" font-family="'Helvetica Neue', sans-serif" 
            font-size="31" font-weight="700" fill="#1a365d">AEOLITECH</text>
    </g>
  </g>
  
  <!-- 4. Cost Optimization Arrow - $523M savings symbol -->
  <g transform="translate(2850, 150)">
    <g transform="scale(1.5)">
      <!-- Upward arrow with optimization nodes -->
      <path d="M 50 20 L 65 40 L 55 40 L 55 65 L 45 65 L 45 40 L 35 40 Z" fill="#1a365d"/>
      <!-- Cost reduction indicators -->
      <circle cx="50" cy="30" r="3" fill="#00d4ff"/>
      <circle cx="45" cy="50" r="2" fill="#00d4ff"/>
      <circle cx="55" cy="55" r="2" fill="#00d4ff"/>
      <text x="80" y="60" font-family="'Inter', sans-serif" 
            font-size="32" font-weight="500" letter-spacing="1" fill="#1a365d">AEOLITECH</text>
    </g>
  </g>
  
  <!-- Row 2: Cloud Governance Concepts -->
  <!-- 5. Unified Cloud Platform - AWS/Azure/GCP integration -->
  <g transform="translate(150, 650)">
    <g transform="scale(1.5)">
      <!-- Three interconnected clouds -->
      <circle cx="40" cy="35" r="12" fill="none" stroke="#1a365d" stroke-width="3"/>
      <circle cx="60" cy="35" r="12" fill="none" stroke="#1a365d" stroke-width="3"/>
      <circle cx="50" cy="50" r="12" fill="none" stroke="#1a365d" stroke-width="3"/>
      <!-- Central governance node -->
      <circle cx="50" cy="40" r="5" fill="#00d4ff"/>
      <text x="85" y="60" font-family="'SF Pro Text', sans-serif" 
            font-size="30" font-weight="600" fill="#1a365d">AEOLITECH</text>
    </g>
  </g>
  
  <!-- 6. Policy Engine - Geometric cortex -->
  <g transform="translate(1050, 650)">
    <g transform="scale(1.5)">
      <!-- Hexagonal policy framework -->
      <path d="M 50 15 L 68 26 L 68 49 L 50 60 L 32 49 L 32 26 Z" fill="none" stroke="#1a365d" stroke-width="3"/>
      <!-- Policy nodes -->
      <rect x="46" y="33" width="8" height="8" fill="#1a365d"/>
      <rect x="46" y="33" width="8" height="8" fill="#00d4ff" transform="rotate(45 50 37)"/>
      <text x="85" y="55" font-family="'Montserrat', sans-serif" 
            font-size="29" font-weight="700" fill="#1a365d">AEOLITECH</text>
    </g>
  </g>
  
  <!-- 7. Network Mesh - Self-healing networks -->
  <g transform="translate(1950, 650)">
    <g transform="scale(1.5)">
      <!-- Mesh network pattern -->
      <circle cx="35" cy="30" r="3" fill="#1a365d"/>
      <circle cx="65" cy="30" r="3" fill="#1a365d"/>
      <circle cx="50" cy="45" r="5" fill="#00d4ff"/>
      <circle cx="35" cy="60" r="3" fill="#1a365d"/>
      <circle cx="65" cy="60" r="3" fill="#1a365d"/>
      <!-- Connections -->
      <path d="M 35 30 L 50 45 L 65 30 M 35 60 L 50 45 L 65 60 M 35 30 L 35 60 M 65 30 L 65 60" 
            stroke="#1a365d" stroke-width="1.5" opacity="0.3"/>
      <text x="85" y="55" font-family="'Inter', sans-serif" 
            font-size="31" font-weight="400" fill="#1a365d">AEOLITECH</text>
    </g>
  </g>
  
  <!-- 8. Compliance Shield - HIPAA/Security focused -->
  <g transform="translate(2850, 650)">
    <g transform="scale(1.5)">
      <!-- Shield with checkmark -->
      <path d="M 50 20 Q 65 20, 70 30 L 70 45 Q 70 60, 50 70 Q 30 60, 30 45 L 30 30 Q 35 20, 50 20" 
            fill="#1a365d"/>
      <!-- Compliance checkmark -->
      <path d="M 40 45 L 48 53 L 60 38" fill="none" stroke="#00d4ff" stroke-width="3" stroke-linecap="round"/>
      <text x="85" y="60" font-family="'Futura', sans-serif" 
            font-size="28" font-weight="500" letter-spacing="2" fill="#1a365d">AEOLITECH</text>
    </g>
  </g>
  
  <!-- Row 3: Scientific & Data-Driven -->
  <!-- 9. Data Cortex - The Science of Cloud -->
  <g transform="translate(150, 1150)">
    <g transform="scale(1.5)">
      <!-- Scientific molecule structure -->
      <circle cx="50" cy="30" r="6" fill="#1a365d"/>
      <circle cx="35" cy="50" r="5" fill="#1a365d"/>
      <circle cx="65" cy="50" r="5" fill="#1a365d"/>
      <circle cx="50" cy="40" r="8" fill="#00d4ff"/>
      <!-- Bonds -->
      <line x1="50" y1="30" x2="50" y2="40" stroke="#1a365d" stroke-width="2"/>
      <line x1="50" y1="40" x2="35" y2="50" stroke="#1a365d" stroke-width="2"/>
      <line x1="50" y1="40" x2="65" y2="50" stroke="#1a365d" stroke-width="2"/>
      <text x="85" y="55" font-family="'SF Pro Display', sans-serif" 
            font-size="30" font-weight="400" fill="#1a365d">AEOLITECH</text>
    </g>
  </g>
  
  <!-- 10. Analytics Wave - 99.9% Uptime visualization -->
  <g transform="translate(1050, 1150)">
    <g transform="scale(1.5)">
      <!-- Performance wave -->
      <path d="M 20 50 Q 30 35, 40 50 T 60 50 T 80 50" 
            fill="none" stroke="#1a365d" stroke-width="4" stroke-linecap="round"/>
      <!-- Peak performance dot -->
      <circle cx="50" cy="35" r="5" fill="#00d4ff"/>
      <text x="95" y="55" font-family="'Inter', sans-serif" 
            font-size="32" font-weight="600" fill="#1a365d">AEOLITECH</text>
    </g>
  </g>
  
  <!-- 11. ROI Accelerator - 3-month ROI symbol -->
  <g transform="translate(1950, 1150)">
    <g transform="scale(1.5)">
      <!-- Acceleration curves -->
      <path d="M 30 60 Q 40 40, 50 30 Q 60 20, 70 15" 
            fill="none" stroke="#1a365d" stroke-width="3"/>
      <path d="M 30 55 Q 40 35, 50 25 Q 60 15, 70 10" 
            fill="none" stroke="#00d4ff" stroke-width="2"/>
      <!-- ROI indicator -->
      <circle cx="70" cy="15" r="4" fill="#1a365d"/>
      <circle cx="70" cy="10" r="3" fill="#00d4ff"/>
      <text x="85" y="55" font-family="'Helvetica Neue', sans-serif" 
            font-size="30" font-weight="500" fill="#1a365d">AEOLITECH</text>
    </g>
  </g>
  
  <!-- 12. Enterprise Scale - 48+ clients visualization -->
  <g transform="translate(2850, 1150)">
    <g transform="scale(1.5)">
      <!-- Enterprise grid -->
      <rect x="30" y="25" width="12" height="12" fill="#1a365d"/>
      <rect x="45" y="25" width="12" height="12" fill="#1a365d"/>
      <rect x="60" y="25" width="12" height="12" fill="#1a365d"/>
      <rect x="30" y="40" width="12" height="12" fill="#1a365d"/>
      <rect x="45" y="40" width="12" height="12" fill="#00d4ff"/>
      <rect x="60" y="40" width="12" height="12" fill="#1a365d"/>
      <text x="85" y="55" font-family="'SF Pro Text', sans-serif" 
            font-size="31" font-weight="700" fill="#1a365d">AEOLITECH</text>
    </g>
  </g>
  
  <!-- Row 4: Modern Tech Concepts -->
  <!-- 13. AI Infinity - Continuous innovation -->
  <g transform="translate(150, 1650)">
    <g transform="scale(1.5)">
      <!-- Infinity with AI nodes -->
      <path d="M 30 45 Q 30 25, 50 45 Q 70 65, 70 45 Q 70 25, 50 45 Q 30 65, 30 45" 
            fill="none" stroke="#1a365d" stroke-width="4"/>
      <circle cx="50" cy="45" r="4" fill="#00d4ff"/>
      <text x="85" y="55" font-family="'Inter', sans-serif" 
            font-size="32" font-weight="500" fill="#1a365d">AEOLITECH</text>
    </g>
  </g>
  
  <!-- 14. Quantum Gateway - Next-gen portal -->
  <g transform="translate(1050, 1650)">
    <g transform="scale(1.5)">
      <!-- Portal rings -->
      <circle cx="50" cy="45" r="20" fill="none" stroke="#1a365d" stroke-width="3"/>
      <circle cx="50" cy="45" r="12" fill="none" stroke="#00d4ff" stroke-width="2"/>
      <circle cx="50" cy="45" r="5" fill="#1a365d"/>
      <text x="80" y="55" font-family="'Montserrat', sans-serif" 
            font-size="30" font-weight="600" fill="#1a365d">AEOLITECH</text>
    </g>
  </g>
  
  <!-- 15. Binary Cloud - Tech-forward design -->
  <g transform="translate(1950, 1650)">
    <g transform="scale(1.5)">
      <!-- Cloud with binary -->
      <path d="M 30 50 Q 30 35, 45 35 Q 50 20, 65 20 Q 80 20, 85 35 Q 100 35, 100 50 Q 100 65, 85 65 L 45 65 Q 30 65, 30 50" 
            fill="none" stroke="#1a365d" stroke-width="3"/>
      <!-- Binary pattern -->
      <text x="50" y="50" font-family="'SF Mono', monospace" font-size="12" fill="#00d4ff" text-anchor="middle">101010</text>
      <text x="105" y="55" font-family="'Inter', sans-serif" 
            font-size="31" font-weight="400" fill="#1a365d">AEOLITECH</text>
    </g>
  </g>
  
  <!-- 16. Partner Network - AWS/Azure/GCP badges -->
  <g transform="translate(2850, 1650)">
    <g transform="scale(1.5)">
      <!-- Three partner nodes -->
      <rect x="30" y="35" width="8" height="8" fill="#1a365d"/>
      <rect x="46" y="35" width="8" height="8" fill="#00d4ff"/>
      <rect x="62" y="35" width="8" height="8" fill="#1a365d"/>
      <!-- Connection line -->
      <rect x="30" y="48" width="40" height="2" fill="#1a365d" opacity="0.3"/>
      <text x="85" y="55" font-family="'Helvetica Neue', sans-serif" 
            font-size="32" font-weight="500" fill="#1a365d">AEOLITECH</text>
    </g>
  </g>
  
  <!-- Row 5: Premium & Bold -->
  <!-- 17. The Monolith - Enterprise authority -->
  <g transform="translate(150, 2150)">
    <g transform="scale(1.5)">
      <!-- Bold A monolith -->
      <path d="M 40 20 L 30 65 L 40 65 L 43 50 L 57 50 L 60 65 L 70 65 L 60 20 Z M 45 40 L 50 25 L 55 40 Z" 
            fill="#1a365d"/>
      <!-- Tech accent -->
      <rect x="43" y="45" width="14" height="3" fill="#00d4ff"/>
      <text x="85" y="60" font-family="'Futura', sans-serif" 
            font-size="33" font-weight="800" letter-spacing="-1" fill="#1a365d">AEOLITECH</text>
    </g>
  </g>
  
  <!-- 18. Code Bracket - Developer friendly -->
  <g transform="translate(1050, 2150)">
    <g transform="scale(1.5)">
      <text x="0" y="55" font-family="'SF Mono', 'Courier', monospace" 
            font-size="34" font-weight="500" fill="#1a365d">
        {<tspan fill="#00d4ff">A</tspan>}EOLITECH
      </text>
    </g>
  </g>
  
  <!-- 19. Gradient Sphere - Premium presence -->
  <g transform="translate(1950, 2150)">
    <g transform="scale(1.5)">
      <!-- Gradient orb -->
      <circle cx="45" cy="45" r="22" fill="url(#cortexGrad)"/>
      <path d="M 30 45 Q 45 25, 60 45" fill="none" stroke="#FFFFFF" stroke-width="3" stroke-linecap="round" opacity="0.8"/>
      <text x="75" y="55" font-family="'Inter', sans-serif" 
            font-size="32" font-weight="300" fill="#1a365d">AEOLITECH</text>
    </g>
  </g>
  
  <!-- 20. PolicyCortex Icon - Flagship product -->
  <g transform="translate(2850, 2150)">
    <g transform="scale(1.5)">
      <!-- Cortex brain pattern -->
      <circle cx="50" cy="45" r="20" fill="#1a365d"/>
      <!-- Neural pattern -->
      <circle cx="50" cy="45" r="8" fill="#FFFFFF"/>
      <circle cx="50" cy="45" r="5" fill="#00d4ff"/>
      <circle cx="43" cy="38" r="2" fill="#FFFFFF"/>
      <circle cx="57" cy="38" r="2" fill="#FFFFFF"/>
      <circle cx="43" cy="52" r="2" fill="#FFFFFF"/>
      <circle cx="57" cy="52" r="2" fill="#FFFFFF"/>
      <text x="80" y="55" font-family="'SF Pro Display', sans-serif" 
            font-size="30" font-weight="600" fill="#1a365d">AEOLITECH</text>
    </g>
  </g>
  
  <!-- Premium Brand Showcase -->
  <g transform="translate(0, 2700)">
    <rect x="0" y="0" width="4800" height="900" fill="#1a365d"/>
    
    <!-- Main showcase -->
    <g transform="translate(2400, 300)">
      <!-- Large icon -->
      <circle cx="0" cy="0" r="80" fill="#FFFFFF"/>
      <path d="M 0 -40 L -20 20 L -10 20 L -5 5 L 5 5 L 10 20 L 20 20 Z" fill="#1a365d" transform="scale(2)"/>
      <circle cx="0" cy="-40" r="8" fill="#00d4ff" transform="scale(2)"/>
      
      <!-- Company name -->
      <text x="0" y="150" font-family="'SF Pro Display', -apple-system, sans-serif" 
            font-size="72" font-weight="200" fill="#FFFFFF" text-anchor="middle" letter-spacing="12">AEOLITECH</text>
      
      <!-- Tagline -->
      <text x="0" y="220" font-family="'Inter', sans-serif" 
            font-size="28" font-weight="300" fill="#00d4ff" text-anchor="middle">The Science of Cloud Governance</text>
      
      <!-- Key metrics -->
      <text font-family="'Inter', sans-serif" font-size="20" font-weight="400" fill="#FFFFFF" opacity="0.8" text-anchor="middle">
        <tspan x="-300" y="320">48+ Enterprise Clients</tspan>
        <tspan x="0" y="320">$523M Cost Savings</tspan>
        <tspan x="300" y="320">99.9% Uptime SLA</tspan>
      </text>
    </g>
  </g>
  
  <!-- Brand Guidelines Footer -->
  <g transform="translate(150, 3800)">
    <text font-family="'Inter', sans-serif" font-size="24" fill="#1a365d">
      <tspan x="0" y="0" font-weight="700">AEOLITECH Brand Guidelines</tspan>
      <tspan x="0" y="50">Primary Colors: Navy (#1a365d) • Cyan (#00d4ff) • White (#FFFFFF)</tspan>
      <tspan x="0" y="90">Typography: SF Pro Display • Inter • Helvetica Neue • Futura</tspan>
      <tspan x="0" y="130">Partners: AWS Advanced • Microsoft Azure Gold • Google Cloud Premier</tspan>
      <tspan x="0" y="170">Applications: Enterprise Software • Cloud Platforms • AI Solutions</tspan>
      <tspan x="0" y="250" font-size="18" opacity="0.6">© 2025 AEOLITECH - Proactive AI-Powered Cloud Management Automation</tspan>
    </text>
  </g>
</svg>