<?xml version="1.0" encoding="UTF-8"?>
<svg id="Layer_2" data-name="Layer 2" xmlns="http://www.w3.org/2000/svg" viewBox="0 0 1070.49 163.7">
  <defs>
    <style>
      .cls-1 {
        fill: #06b6d4;
      }

      .cls-2 {
        fill: #1e3a8a;
      }
    </style>
  </defs>
  <g id="Layer_1-2" data-name="Layer 1">
    <g>
      <g>
        <path class="cls-2" d="M287.74,32.5l-35.24,84.33h22.28l5.91-15.35h35.49l5.92,15.35h22.15l-35.24-84.33h-21.27ZM287.74,83.61l10.7-27.69,10.82,27.69h-21.52Z"/>
        <polygon class="cls-2" points="384.91 83.1 425.82 83.1 425.82 66.24 384.91 66.24 384.91 50.38 429.47 50.38 429.47 32.5 364.14 32.5 364.14 116.83 429.85 116.83 429.85 98.96 384.91 98.96 384.91 83.1"/>
        <path class="cls-2" d="M528.03,43.52c-4.11-4.07-8.91-7.24-14.41-9.5-5.5-2.26-11.31-3.4-17.43-3.4s-11.93,1.13-17.43,3.4c-5.5,2.27-10.3,5.43-14.41,9.5-4.11,4.07-7.32,8.81-9.63,14.22-2.31,5.41-3.46,11.1-3.46,17.05s1.15,11.62,3.46,16.99,5.52,10.07,9.63,14.1c4.11,4.03,8.91,7.17,14.41,9.44,5.5,2.27,11.31,3.4,17.43,3.4s11.94-1.13,17.43-3.4c5.5-2.27,10.3-5.41,14.41-9.44,4.11-4.03,7.32-8.72,9.63-14.1,2.31-5.37,3.46-11.03,3.46-16.99s-1.15-11.64-3.46-17.05c-2.31-5.41-5.51-10.15-9.63-14.22ZM518.53,84.61c-1.21,3.1-2.91,5.77-5.1,7.99-2.18,2.22-4.76,3.96-7.74,5.22-2.98,1.26-6.15,1.89-9.5,1.89s-6.52-.63-9.5-1.89c-2.98-1.26-5.56-3-7.74-5.22-2.18-2.22-3.88-4.89-5.1-7.99-1.21-3.1-1.82-6.38-1.82-9.82s.69-7.03,2.08-10.51c1.39-3.48,3.44-6.38,6.17-8.68,2.73-2.31,5.46-3.88,8.18-4.72,2.73-.84,5.31-1.26,7.74-1.26,3.36,0,6.69.71,10.01,2.14,3.31,1.43,6.1,3.54,8.37,6.36s3.8,5.64,4.59,8.5c.8,2.85,1.2,5.58,1.2,8.18,0,3.44-.61,6.71-1.82,9.82Z"/>
        <polygon class="cls-2" points="586.19 32.5 565.42 32.5 565.42 116.83 627.72 116.83 627.72 98.71 586.19 98.71 586.19 32.5"/>
        <rect class="cls-2" x="651.9" y="32.5" width="20.77" height="84.33"/>
        <polygon class="cls-2" points="695.07 50.63 722.38 50.63 722.38 116.83 743.02 116.83 743.02 50.63 770.34 50.63 770.34 32.5 695.07 32.5 695.07 50.63"/>
        <polygon class="cls-2" points="813.52 83.1 854.42 83.1 854.42 66.24 813.52 66.24 813.52 50.38 858.07 50.38 858.07 32.5 792.75 32.5 792.75 116.83 858.45 116.83 858.45 98.96 813.52 98.96 813.52 83.1"/>
        <path class="cls-2" d="M941.46,92.48c-2.48,2.9-5.27,4.85-8.37,5.85-3.1,1.01-5.92,1.51-8.43,1.51-3.27,0-6.38-.63-9.31-1.89-2.94-1.26-5.5-3.04-7.68-5.35-2.18-2.31-3.9-5.01-5.16-8.12-1.26-3.11-1.89-6.38-1.89-9.82s.63-6.71,1.89-9.82c1.26-3.1,2.98-5.79,5.16-8.06,2.18-2.27,4.74-4.03,7.68-5.29,2.94-1.26,6.04-1.89,9.31-1.89,3.86,0,7.34.75,10.45,2.26,3.1,1.51,5.6,3.61,7.49,6.29,1.89,2.69,3.25,5.88,4.09,9.57l20.39-4.78c-2.01-9.82-6.97-17.66-14.85-23.54-7.89-5.87-17.08-8.81-27.56-8.81-6.04,0-11.81,1.13-17.31,3.4-5.5,2.27-10.3,5.41-14.41,9.44-4.11,4.03-7.32,8.75-9.63,14.16-2.31,5.41-3.46,11.1-3.46,17.06s1.15,11.66,3.46,17.12c2.31,5.46,5.52,10.19,9.63,14.22,4.11,4.03,8.91,7.15,14.41,9.38,5.5,2.22,11.27,3.33,17.31,3.33,5.29,0,10.32-.75,15.1-2.26,4.78-1.51,9.06-3.71,12.84-6.61,3.77-2.89,6.92-6.44,9.44-10.63,2.52-4.2,4.24-8.85,5.16-13.97l-20.39-4.03c-1.09,4.61-2.87,8.37-5.35,11.26Z"/>
        <polygon class="cls-2" points="1047.77 32.5 1047.77 65.35 1012.27 65.35 1012.27 32.5 991.5 32.5 991.5 116.83 1012.27 116.83 1012.27 83.48 1047.77 83.48 1047.77 116.83 1068.41 116.83 1068.41 32.5 1047.77 32.5"/>
      </g>
      <g>
        <polygon class="cls-2" points="33.89 160.07 25.82 144.81 23.91 144.81 23.91 163.34 26.01 163.34 26.01 149.46 33.34 163.34 34.47 163.34 41.77 149.46 41.77 163.34 43.88 163.34 43.88 144.81 41.97 144.81 33.89 160.07"/>
        <path class="cls-2" d="M63.19,144.81l-8.29,18.53h2.35l2.08-4.7h9.76l2.07,4.7h2.35l-8.3-18.53h-2.02ZM60.18,156.67l4.04-9.15,4.01,9.15h-8.05Z"/>
        <path class="cls-2" d="M95.16,154.08c-.75-.33-1.43-.56-2.06-.69l-4.04-.91c-.9-.18-1.59-.5-2.07-.94-.48-.44-.72-1.05-.72-1.82s.22-1.37.67-1.91c.44-.54,1-.91,1.67-1.12.67-.21,1.3-.32,1.87-.32s1.23.11,1.92.33c.69.22,1.31.63,1.85,1.23.54.6.89,1.03,1.04,1.84h2.18c-.31-1.53-1.09-2.98-2.34-3.91-1.25-.93-2.78-1.4-4.6-1.4-.96,0-1.85.13-2.67.39-.82.26-1.52.62-2.1,1.09-.58.47-1.03,1.03-1.34,1.69-.31.65-.47,1.37-.47,2.14,0,2.49,1.48,4.07,4.45,4.73l4.17.91c1.05.24,1.82.58,2.3,1.01.48.43.72,1.06.72,1.89,0,1.03-.4,1.87-1.21,2.5-.81.64-1.91.95-3.29.95-1.46,0-2.67-.36-3.65-1.08-.98-.72-1.57-1.25-1.77-2.52h-2.29c.11.85.38,1.62.8,2.31.42.69.97,1.28,1.65,1.76.67.48,1.45.84,2.32,1.09.88.25,1.79.37,2.75.37,1.27,0,2.36-.18,3.26-.54.9-.36,1.62-.81,2.16-1.34.54-.54.91-1.12,1.13-1.76.22-.64.33-1.26.33-1.87,0-1.05-.25-1.92-.75-2.6-.5-.68-1.12-1.19-1.87-1.52Z"/>
        <polygon class="cls-2" points="107.71 146.77 114.59 146.77 114.59 163.34 116.8 163.34 116.8 146.77 123.66 146.77 123.66 144.81 107.71 144.81 107.71 146.77"/>
        <polygon class="cls-2" points="137.28 155.02 147.79 155.02 147.79 153.05 137.28 153.05 137.28 146.77 148.59 146.77 148.59 144.81 135.09 144.81 135.09 163.34 148.62 163.34 148.62 161.35 137.28 161.35 137.28 155.02"/>
        <path class="cls-2" d="M169.59,155.4c1.11,0,2.06-.18,2.85-.53.79-.35,1.43-.79,1.91-1.31.48-.53.82-1.09,1.01-1.7.19-.61.29-1.2.29-1.77,0-.78-.14-1.49-.43-2.14-.29-.65-.7-1.22-1.25-1.69-.54-.47-1.19-.83-1.93-1.08s-1.56-.37-2.45-.37h-8.57v18.53h2.18v-7.94h3.4l7.08,7.94h2.74l-7.16-7.94h.33ZM163.2,153.41v-6.64h6.39c1.16,0,2.1.3,2.81.91.71.61,1.06,1.41,1.06,2.41s-.35,1.8-1.06,2.41c-.71.61-1.65.91-2.81.91h-6.39Z"/>
        <rect class="cls-2" x="187.85" y="144.81" width="2.18" height="18.53"/>
        <polygon class="cls-2" points="217.17 159.69 205.06 144.81 203.18 144.81 203.18 163.34 205.36 163.34 205.36 148.63 217.47 163.34 219.36 163.34 219.36 144.81 217.17 144.81 217.17 159.69"/>
        <path class="cls-2" d="M240.24,153.16v1.99h8.18c-.11.92-.36,1.78-.75,2.57-.39.79-.89,1.48-1.52,2.07-.63.59-1.36,1.05-2.19,1.37-.83.32-1.72.48-2.68.48-1.02,0-1.98-.19-2.91-.58-.92-.39-1.72-.93-2.41-1.62-.68-.69-1.21-1.5-1.6-2.43-.39-.93-.58-1.91-.58-2.94s.19-2.01.57-2.95.9-1.74,1.58-2.43c.67-.69,1.47-1.23,2.38-1.62.91-.39,1.87-.58,2.86-.58,1.09,0,2.12.19,3.1.58.98.39,1.75.89,2.33,1.52.58.63.75.85,1.07,1.49h2.24c-.66-1.68-1.78-3.27-3.35-4.22-1.56-.95-3.36-1.43-5.39-1.43-1.29,0-2.53.25-3.71.73-1.18.49-2.21,1.18-3.09,2.06s-1.57,1.92-2.06,3.1c-.49,1.18-.73,2.43-.73,3.73s.24,2.55.73,3.73c.49,1.18,1.18,2.21,2.06,3.1s1.92,1.57,3.11,2.06c1.19.49,2.44.73,3.75.73s2.57-.25,3.72-.73c1.15-.49,2.14-1.17,2.97-2.05.83-.87,1.47-1.9,1.92-3.08.45-1.18.67-2.42.67-3.73l-.03-.94h-10.26Z"/>
        <path class="cls-2" d="M281.52,148.7c.68-.69,1.48-1.23,2.38-1.62.9-.39,1.86-.58,2.87-.58,1.61,0,3.01.42,4.22,1.25,1.21.83,2.04,1.37,2.5,2.85h2.1c-.57-1.86-1.65-3.35-3.25-4.47-1.59-1.12-3.45-1.67-5.57-1.67-1.31,0-2.55.25-3.73.73-1.18.49-2.21,1.18-3.09,2.06s-1.57,1.92-2.06,3.1c-.49,1.18-.73,2.43-.73,3.73s.24,2.55.73,3.73c.49,1.18,1.18,2.21,2.06,3.1s1.92,1.57,3.09,2.06c1.18.49,2.42.73,3.73.73,2.12,0,3.98-.57,5.57-1.7,1.6-1.14,2.68-2.66,3.25-4.58h-2.1c-.48,1.5-1.32,2.16-2.5,2.99-1.19.83-2.59,1.24-4.22,1.24-.99,0-1.95-.19-2.86-.58-.91-.39-1.71-.93-2.39-1.62-.68-.69-1.21-1.5-1.59-2.43s-.57-1.91-.57-2.94.19-2.01.57-2.95.91-1.74,1.59-2.43Z"/>
        <polygon class="cls-2" points="310.05 144.81 307.86 144.81 307.86 163.34 320.66 163.34 320.66 161.35 310.05 161.35 310.05 144.81"/>
        <path class="cls-2" d="M347.15,147.26c-.87-.87-1.9-1.56-3.08-2.06-1.18-.5-2.41-.75-3.71-.75s-2.55.25-3.73.75c-1.18.5-2.21,1.18-3.08,2.06-.87.88-1.56,1.91-2.05,3.1-.49,1.19-.73,2.43-.73,3.72s.24,2.55.73,3.73c.49,1.18,1.17,2.21,2.05,3.1.87.88,1.9,1.57,3.08,2.06,1.18.49,2.42.73,3.73.73s2.53-.25,3.71-.73c1.18-.49,2.21-1.18,3.08-2.06.87-.89,1.56-1.92,2.05-3.1.49-1.18.73-2.42.73-3.73s-.25-2.53-.73-3.72c-.49-1.19-1.17-2.22-2.05-3.1ZM347.15,157.02c-.38.93-.9,1.74-1.58,2.43-.67.69-1.46,1.23-2.36,1.6-.9.38-1.85.57-2.85.57s-2.03-.22-3.04-.65c-1.01-.43-1.87-1.07-2.56-1.92-.69-.85-1.16-1.7-1.41-2.54-.25-.85-.37-1.66-.37-2.43,0-1.03.19-2.01.57-2.95s.9-1.74,1.58-2.43c.67-.69,1.47-1.23,2.38-1.62.91-.39,1.87-.58,2.86-.58s1.94.19,2.85.58c.9.39,1.69.93,2.36,1.62.67.69,1.2,1.5,1.58,2.43.38.93.57,1.91.57,2.95s-.19,2.01-.57,2.94Z"/>
        <path class="cls-2" d="M375.3,155.24c0,3.58-1.99,6.36-5.53,6.36s-5.61-2.74-5.61-6.36v-10.42h-2.18v10.42c0,1.23.18,2.38.55,3.43,1.01,2.88,3.42,5.03,7.24,5.03,1.12,0,2.17-.2,3.12-.61,2.79-1.18,4.59-3.92,4.59-7.85v-10.42h-2.19v10.42Z"/>
        <path class="cls-2" d="M404.13,147.47c-.88-.83-1.97-1.48-3.26-1.95-1.29-.47-2.72-.71-4.29-.71h-6.14v18.53h6.14c1.56,0,3-.24,4.29-.71s2.38-1.12,3.26-1.96c.89-.84,1.56-1.82,2.02-2.96.46-1.14.69-2.35.69-3.64s-.23-2.51-.69-3.65c-.46-1.14-1.13-2.13-2.02-2.96ZM404.09,156.94c-.36.89-.89,1.67-1.58,2.32-.69.65-1.54,1.17-2.56,1.54-1.01.37-2.15.55-3.4.55h-3.93v-14.57h3.93c1.25,0,2.39.18,3.4.55,1.01.37,1.87.89,2.56,1.55.69.66,1.22,1.44,1.58,2.34.36.89.54,1.85.54,2.86s-.18,1.97-.54,2.86Z"/>
        <path class="cls-2" d="M442.12,153.16v1.99h8.18c-.11.92-.36,1.78-.75,2.57-.39.79-.89,1.48-1.52,2.07-.63.59-1.35,1.05-2.18,1.37-.83.32-1.72.48-2.68.48-1.01,0-1.98-.19-2.9-.58-.92-.39-1.72-.93-2.41-1.62-.68-.69-1.22-1.5-1.6-2.43-.39-.93-.58-1.91-.58-2.94s.19-2.01.57-2.95.9-1.74,1.57-2.43c.67-.69,1.47-1.23,2.38-1.62.91-.39,1.87-.58,2.86-.58,1.09,0,2.12.19,3.1.58.98.39,1.76.89,2.34,1.52.58.63.75.85,1.06,1.49h2.24c-.66-1.68-1.78-3.27-3.35-4.22-1.56-.95-3.36-1.43-5.39-1.43-1.29,0-2.53.25-3.71.73s-2.21,1.18-3.1,2.06c-.89.89-1.57,1.92-2.06,3.1-.49,1.18-.73,2.43-.73,3.73s.24,2.55.73,3.73c.49,1.18,1.17,2.21,2.06,3.1.89.88,1.92,1.57,3.11,2.06,1.19.49,2.44.73,3.75.73s2.57-.25,3.72-.73c1.15-.49,2.14-1.17,2.97-2.05.83-.87,1.47-1.9,1.92-3.08.45-1.18.68-2.42.68-3.73l-.03-.94h-10.26Z"/>
        <path class="cls-2" d="M480.14,147.26c-.88-.87-1.9-1.56-3.08-2.06-1.18-.5-2.41-.75-3.7-.75s-2.55.25-3.73.75c-1.18.5-2.21,1.18-3.08,2.06s-1.56,1.91-2.05,3.1c-.49,1.19-.73,2.43-.73,3.72s.24,2.55.73,3.73c.49,1.18,1.17,2.21,2.05,3.1.87.88,1.9,1.57,3.08,2.06s2.42.73,3.73.73,2.53-.25,3.7-.73c1.18-.49,2.21-1.18,3.08-2.06.87-.89,1.56-1.92,2.05-3.1.49-1.18.73-2.42.73-3.73s-.25-2.53-.73-3.72c-.49-1.19-1.17-2.22-2.05-3.1ZM480.14,157.02c-.38.93-.9,1.74-1.58,2.43-.67.69-1.46,1.23-2.36,1.6-.9.38-1.85.57-2.85.57s-2.03-.22-3.04-.65c-1.01-.43-1.87-1.07-2.56-1.92-.69-.85-1.16-1.7-1.41-2.54-.25-.85-.37-1.66-.37-2.43,0-1.03.19-2.01.57-2.95.38-.93.9-1.74,1.57-2.43.67-.69,1.47-1.23,2.38-1.62.91-.39,1.87-.58,2.86-.58s1.94.19,2.85.58c.9.39,1.69.93,2.36,1.62.67.69,1.2,1.5,1.58,2.43.38.93.57,1.91.57,2.95s-.19,2.01-.57,2.94Z"/>
        <polygon class="cls-2" points="501.68 160.35 494.93 144.81 492.55 144.81 500.63 163.34 502.73 163.34 510.8 144.81 508.42 144.81 501.68 160.35"/>
        <polygon class="cls-2" points="524.23 155.02 534.74 155.02 534.74 153.05 524.23 153.05 524.23 146.77 535.54 146.77 535.54 144.81 522.04 144.81 522.04 163.34 535.56 163.34 535.56 161.35 524.23 161.35 524.23 155.02"/>
        <path class="cls-2" d="M556.54,155.4c1.11,0,2.06-.18,2.85-.53.79-.35,1.43-.79,1.91-1.31.48-.53.82-1.09,1.01-1.7.19-.61.29-1.2.29-1.77,0-.78-.14-1.49-.43-2.14-.29-.65-.7-1.22-1.25-1.69-.54-.47-1.19-.83-1.93-1.08-.75-.25-1.56-.37-2.45-.37h-8.57v18.53h2.18v-7.94h3.4l7.08,7.94h2.74l-7.16-7.94h.33ZM550.15,153.41v-6.64h6.39c1.16,0,2.1.3,2.81.91s1.06,1.41,1.06,2.41-.35,1.8-1.06,2.41c-.71.61-1.65.91-2.81.91h-6.39Z"/>
        <polygon class="cls-2" points="588.79 159.69 576.68 144.81 574.8 144.81 574.8 163.34 576.98 163.34 576.98 148.63 589.09 163.34 590.98 163.34 590.98 144.81 588.79 144.81 588.79 159.69"/>
        <path class="cls-2" d="M609.96,144.81l-8.29,18.53h2.35l2.07-4.7h9.76l2.07,4.7h2.35l-8.29-18.53h-2.02ZM606.94,156.67l4.04-9.15,4.01,9.15h-8.05Z"/>
        <polygon class="cls-2" points="645.28 159.69 633.17 144.81 631.29 144.81 631.29 163.34 633.47 163.34 633.47 148.63 645.59 163.34 647.47 163.34 647.47 144.81 645.28 144.81 645.28 159.69"/>
        <path class="cls-2" d="M664.07,148.7c.68-.69,1.48-1.23,2.38-1.62.9-.39,1.86-.58,2.87-.58,1.61,0,3.01.42,4.22,1.25,1.21.83,2.04,1.37,2.5,2.85h2.1c-.57-1.86-1.65-3.35-3.25-4.47-1.59-1.12-3.45-1.67-5.57-1.67-1.31,0-2.55.25-3.73.73-1.18.49-2.21,1.18-3.09,2.06s-1.57,1.92-2.06,3.1c-.49,1.18-.73,2.43-.73,3.73s.24,2.55.73,3.73c.49,1.18,1.18,2.21,2.06,3.1s1.92,1.57,3.09,2.06c1.18.49,2.42.73,3.73.73,2.12,0,3.98-.57,5.57-1.7,1.6-1.14,2.68-2.66,3.25-4.58h-2.1c-.48,1.5-1.32,2.16-2.5,2.99-1.19.83-2.59,1.24-4.22,1.24-.99,0-1.95-.19-2.86-.58-.91-.39-1.71-.93-2.39-1.62-.68-.69-1.21-1.5-1.59-2.43-.38-.93-.57-1.91-.57-2.94s.19-2.01.57-2.95c.38-.93.91-1.74,1.59-2.43Z"/>
        <polygon class="cls-2" points="692.6 155.02 703.1 155.02 703.1 153.05 692.6 153.05 692.6 146.77 703.9 146.77 703.9 144.81 690.41 144.81 690.41 163.34 703.93 163.34 703.93 161.35 692.6 161.35 692.6 155.02"/>
        <path class="cls-2" d="M716.72,148.35c-.4,0-.75.14-1.02.43-.28.29-.42.61-.42.98s.14.72.42.98c.27.27.62.4,1.02.4s.75-.13,1.03-.4c.27-.27.41-.6.41-.98s-.14-.69-.41-.98c-.28-.29-.62-.43-1.03-.43Z"/>
        <path class="cls-2" d="M716.72,157.72c-.4,0-.75.14-1.02.43-.28.29-.42.61-.42.98s.14.72.42.98c.27.27.62.4,1.02.4s.75-.13,1.03-.4c.27-.27.41-.59.41-.98s-.14-.7-.41-.98c-.28-.29-.62-.43-1.03-.43Z"/>
        <path class="cls-2" d="M756.34,154.08c-.75-.33-1.43-.56-2.06-.69l-4.04-.91c-.9-.18-1.59-.5-2.07-.94-.48-.44-.72-1.05-.72-1.82s.22-1.37.66-1.91c.44-.54,1-.91,1.67-1.12.67-.21,1.3-.32,1.87-.32s1.23.11,1.92.33c.69.22,1.31.63,1.85,1.23.54.6.89,1.03,1.04,1.84h2.19c-.31-1.53-1.09-2.98-2.34-3.91-1.24-.93-2.78-1.4-4.6-1.4-.96,0-1.85.13-2.67.39-.82.26-1.52.62-2.1,1.09-.58.47-1.03,1.03-1.34,1.69s-.47,1.37-.47,2.14c0,2.49,1.48,4.07,4.45,4.73l4.18.91c1.05.24,1.81.58,2.3,1.01.48.43.72,1.06.72,1.89,0,1.03-.4,1.87-1.22,2.5-.81.64-1.91.95-3.29.95-1.46,0-2.67-.36-3.65-1.08-.98-.72-1.57-1.25-1.77-2.52h-2.29c.11.85.38,1.62.8,2.31.42.69.97,1.28,1.65,1.76.67.48,1.45.84,2.32,1.09.87.25,1.79.37,2.75.37,1.27,0,2.36-.18,3.26-.54s1.62-.81,2.16-1.34c.53-.54.91-1.12,1.13-1.76.22-.64.33-1.26.33-1.87,0-1.05-.25-1.92-.75-2.6-.5-.68-1.12-1.19-1.87-1.52Z"/>
        <path class="cls-2" d="M774.56,148.7c.68-.69,1.48-1.23,2.38-1.62.9-.39,1.86-.58,2.87-.58,1.61,0,3.01.42,4.22,1.25,1.21.83,2.04,1.37,2.5,2.85h2.1c-.57-1.86-1.65-3.35-3.25-4.47-1.59-1.12-3.45-1.67-5.57-1.67-1.31,0-2.55.25-3.73.73-1.18.49-2.21,1.18-3.09,2.06-.89.89-1.57,1.92-2.06,3.1-.49,1.18-.73,2.43-.73,3.73s.24,2.55.73,3.73c.49,1.18,1.18,2.21,2.06,3.1.88.88,1.92,1.57,3.09,2.06,1.18.49,2.42.73,3.73.73,2.12,0,3.98-.57,5.57-1.7,1.6-1.14,2.68-2.66,3.25-4.58h-2.1c-.48,1.5-1.32,2.16-2.5,2.99-1.19.83-2.59,1.24-4.22,1.24-.99,0-1.95-.19-2.86-.58-.91-.39-1.71-.93-2.39-1.62-.68-.69-1.21-1.5-1.59-2.43s-.57-1.91-.57-2.94.19-2.01.57-2.95.91-1.74,1.59-2.43Z"/>
        <rect class="cls-2" x="800.9" y="144.81" width="2.19" height="18.53"/>
        <polygon class="cls-2" points="818.41 155.02 828.92 155.02 828.92 153.05 818.41 153.05 818.41 146.77 829.72 146.77 829.72 144.81 816.23 144.81 816.23 163.34 829.75 163.34 829.75 161.35 818.41 161.35 818.41 155.02"/>
        <polygon class="cls-2" points="856.14 159.69 844.03 144.81 842.15 144.81 842.15 163.34 844.34 163.34 844.34 148.63 856.45 163.34 858.33 163.34 858.33 144.81 856.14 144.81 856.14 159.69"/>
        <polygon class="cls-2" points="869.73 146.77 876.62 146.77 876.62 163.34 878.83 163.34 878.83 146.77 885.69 146.77 885.69 144.81 869.73 144.81 869.73 146.77"/>
        <rect class="cls-2" x="897.12" y="144.81" width="2.18" height="18.53"/>
        <polygon class="cls-2" points="912.45 163.34 914.63 163.34 914.63 155.21 924.75 155.21 924.75 153.25 914.63 153.25 914.63 146.77 925.72 146.77 925.72 144.81 912.45 144.81 912.45 163.34"/>
        <rect class="cls-2" x="937.07" y="144.81" width="2.18" height="18.53"/>
        <path class="cls-2" d="M955.85,148.7c.68-.69,1.48-1.23,2.38-1.62.9-.39,1.86-.58,2.88-.58,1.6,0,3.01.42,4.22,1.25,1.21.83,2.04,1.37,2.5,2.85h2.1c-.57-1.86-1.65-3.35-3.25-4.47s-3.45-1.67-5.57-1.67c-1.31,0-2.55.25-3.73.73s-2.21,1.18-3.1,2.06c-.89.89-1.57,1.92-2.06,3.1-.49,1.18-.73,2.43-.73,3.73s.24,2.55.73,3.73c.49,1.18,1.17,2.21,2.06,3.1.89.88,1.92,1.57,3.1,2.06s2.42.73,3.73.73c2.12,0,3.98-.57,5.57-1.7,1.59-1.14,2.68-2.66,3.25-4.58h-2.1c-.48,1.5-1.32,2.16-2.5,2.99-1.19.83-2.59,1.24-4.22,1.24-1,0-1.95-.19-2.86-.58-.91-.39-1.71-.93-2.39-1.62-.68-.69-1.21-1.5-1.59-2.43-.38-.93-.57-1.91-.57-2.94s.19-2.01.57-2.95c.38-.93.91-1.74,1.59-2.43Z"/>
        <path class="cls-2" d="M987.83,144.81l-8.29,18.53h2.35l2.08-4.7h9.76l2.07,4.7h2.35l-8.3-18.53h-2.02ZM984.81,156.67l4.04-9.15,4.01,9.15h-8.05Z"/>
        <polygon class="cls-2" points="1011.35 144.81 1009.16 144.81 1009.16 163.34 1021.97 163.34 1021.97 161.35 1011.35 161.35 1011.35 144.81"/>
        <polygon class="cls-2" points="1035.86 144.81 1033.67 144.81 1033.67 163.34 1046.47 163.34 1046.47 161.35 1035.86 161.35 1035.86 144.81"/>
        <polygon class="cls-2" points="1067.97 144.81 1061.67 154.68 1055.36 144.81 1052.93 144.81 1060.59 156.87 1060.59 163.34 1062.77 163.34 1062.77 156.84 1070.49 144.81 1067.97 144.81"/>
      </g>
      <path class="cls-1" d="M199,62.73h17.86c.77,3.24,3.67,5.66,7.15,5.66,4.07,0,7.37-3.3,7.37-7.37s-3.3-7.37-7.37-7.37c-3.48,0-6.38,2.42-7.15,5.66h-17.86v-31.12h17.86c.77,3.24,3.67,5.66,7.15,5.66,4.07,0,7.37-3.3,7.37-7.37s-3.3-7.37-7.37-7.37c-3.48,0-6.38,2.42-7.15,5.66h-17.86v-10.27c3.24-.77,5.66-3.67,5.66-7.15,0-4.07-3.3-7.37-7.37-7.37s-7.37,3.3-7.37,7.37c0,3.48,2.42,6.38,5.66,7.15v10.27h-24.67v-10.27c3.24-.77,5.66-3.67,5.66-7.15,0-4.07-3.3-7.37-7.37-7.37s-7.37,3.3-7.37,7.37c0,3.48,2.42,6.38,5.66,7.15v10.27H35.78v-10.27c3.24-.77,5.66-3.67,5.66-7.15,0-4.07-3.3-7.37-7.37-7.37s-7.37,3.3-7.37,7.37c0,3.48,2.42,6.38,5.66,7.15v10.27H14.52c-.77-3.24-3.67-5.66-7.15-5.66-4.07,0-7.37,3.3-7.37,7.37s3.3,7.37,7.37,7.37c3.48,0,6.38-2.42,7.15-5.66h17.86v31.12H14.52c-.77-3.24-3.67-5.66-7.15-5.66-4.07,0-7.37,3.3-7.37,7.37s3.3,7.37,7.37,7.37c3.48,0,6.38-2.42,7.15-5.66h17.86v13.66H14.52c-.77-3.24-3.67-5.66-7.15-5.66-4.07,0-7.37,3.3-7.37,7.37s3.3,7.37,7.37,7.37c3.48,0,6.38-2.42,7.15-5.66h17.86v34.86H14.52c-.77-3.24-3.67-5.66-7.15-5.66-4.07,0-7.37,3.3-7.37,7.37s3.3,7.37,7.37,7.37c3.48,0,6.38-2.42,7.15-5.66h202.34c.77,3.24,3.67,5.66,7.15,5.66,4.07,0,7.37-3.3,7.37-7.37s-3.3-7.37-7.37-7.37c-3.48,0-6.38,2.42-7.15,5.66h-17.86v-34.86h17.86c.77,3.24,3.67,5.66,7.15,5.66,4.07,0,7.37-3.3,7.37-7.37s-3.3-7.37-7.37-7.37c-3.48,0-6.38,2.42-7.15,5.66h-17.86v-13.66ZM117,95.77c-14.69,0-28.66,6.89-38.85,18.88h-42.37v-.4c14.99-18.53,34.92-30.6,56.46-34.47h75.27v34.86h-44.95v-18.88h-5.56ZM167.51,59.32h-89.42c12.42-15.44,28.41-26.2,45.94-31.12h43.48v31.12Z"/>
    </g>
  </g>
</svg>