<?xml version="1.0" encoding="UTF-8"?>
<svg id="Layer_2" data-name="Layer 2" xmlns="http://www.w3.org/2000/svg" viewBox="0 0 661.4 353.69">
  <defs>
    <style>
      .cls-1 {
        fill: #06b6d4;
      }
    </style>
  </defs>
  <g id="Layer_1-2" data-name="Layer 1">
    <path class="cls-1" d="M568.85,179.31h51.04c2.21,9.27,10.49,16.19,20.44,16.19,11.63,0,21.06-9.43,21.06-21.06s-9.43-21.06-21.06-21.06c-9.95,0-18.23,6.92-20.44,16.19h-51.04v-88.95h51.04c2.21,9.27,10.49,16.19,20.44,16.19,11.63,0,21.06-9.43,21.06-21.06s-9.43-21.06-21.06-21.06c-9.95,0-18.23,6.92-20.44,16.19h-51.04v-29.37c9.27-2.21,16.19-10.49,16.19-20.44,0-11.63-9.43-21.06-21.06-21.06s-21.06,9.43-21.06,21.06c0,9.95,6.92,18.23,16.19,20.44v29.37h-70.52v-29.37c9.27-2.2,16.19-10.49,16.19-20.44,0-11.63-9.43-21.06-21.06-21.06s-21.06,9.43-21.06,21.06c0,9.95,6.92,18.23,16.19,20.44v29.37H102.29v-29.37c9.27-2.21,16.19-10.49,16.19-20.44,0-11.63-9.43-21.06-21.06-21.06s-21.06,9.43-21.06,21.06c0,9.95,6.92,18.23,16.19,20.44v29.37h-51.04c-2.21-9.27-10.49-16.19-20.44-16.19-11.63,0-21.06,9.43-21.06,21.06s9.43,21.06,21.06,21.06c9.95,0,18.23-6.92,20.44-16.19h51.04v88.95h-51.04c-2.21-9.27-10.49-16.19-20.44-16.19-11.63,0-21.06,9.43-21.06,21.06s9.43,21.06,21.06,21.06c9.95,0,18.23-6.92,20.44-16.19h51.04v39.04h-51.04c-2.21-9.27-10.49-16.19-20.44-16.19-11.63,0-21.06,9.43-21.06,21.06s9.43,21.06,21.06,21.06c9.95,0,18.23-6.92,20.44-16.19h51.04v99.66h-51.04c-2.21-9.27-10.49-16.19-20.44-16.19-11.63,0-21.06,9.43-21.06,21.06s9.43,21.06,21.06,21.06c9.95,0,18.23-6.92,20.44-16.19h578.4c2.21,9.27,10.49,16.19,20.44,16.19,11.63,0,21.06-9.43,21.06-21.06s-9.43-21.06-21.06-21.06c-9.95,0-18.23,6.92-20.44,16.19h-51.04v-99.66h51.04c2.21,9.27,10.49,16.19,20.44,16.19,11.63,0,21.06-9.43,21.06-21.06s-9.43-21.06-21.06-21.06c-9.95,0-18.23,6.92-20.44,16.19h-51.04v-39.04ZM334.46,273.77c-41.99,0-81.93,19.68-111.06,53.98h-121.12v-1.14c42.84-52.96,99.81-87.47,161.4-98.53h215.16v99.66h-128.49v-53.98h-15.89ZM478.84,169.56h-255.61c35.5-44.13,81.22-74.91,131.32-88.95h124.3v88.95Z"/>
  </g>
</svg>