<?xml version="1.0" encoding="UTF-8"?>
<svg id="Layer_1" data-name="Layer 1" xmlns="http://www.w3.org/2000/svg" viewBox="0 0 1300 900">
  <defs>
    <style>
      .cls-1 {
        fill: #fff;
      }
    </style>
  </defs>
  <rect x="-22.93" y="-20.25" width="1345.86" height="940.51"/>
  <g>
    <g>
      <path class="cls-1" d="M532.83,426.64l-16.68,39.92h10.55l2.8-7.27h16.8l2.8,7.27h10.49l-16.68-39.92h-10.07ZM532.83,450.83l5.06-13.11,5.12,13.11h-10.19Z"/>
      <polygon class="cls-1" points="578.83 450.59 598.2 450.59 598.2 442.61 578.83 442.61 578.83 435.1 599.92 435.1 599.92 426.64 569 426.64 569 466.56 600.1 466.56 600.1 458.1 578.83 458.1 578.83 450.59"/>
      <path class="cls-1" d="M646.58,431.85c-1.95-1.93-4.22-3.43-6.82-4.5-2.6-1.07-5.35-1.61-8.25-1.61s-5.65.54-8.25,1.61c-2.6,1.07-4.88,2.57-6.82,4.5-1.95,1.93-3.47,4.17-4.56,6.73-1.09,2.56-1.64,5.25-1.64,8.07s.55,5.5,1.64,8.04,2.61,4.77,4.56,6.67c1.95,1.91,4.22,3.4,6.82,4.47,2.6,1.07,5.35,1.61,8.25,1.61s5.65-.54,8.25-1.61c2.6-1.07,4.88-2.56,6.82-4.47,1.95-1.91,3.47-4.13,4.56-6.67,1.09-2.54,1.64-5.22,1.64-8.04s-.55-5.51-1.64-8.07c-1.09-2.56-2.61-4.81-4.56-6.73ZM642.09,451.31c-.57,1.47-1.38,2.73-2.41,3.78-1.03,1.05-2.25,1.88-3.66,2.47-1.41.6-2.91.89-4.5.89s-3.09-.3-4.5-.89c-1.41-.6-2.63-1.42-3.66-2.47-1.03-1.05-1.84-2.31-2.41-3.78-.57-1.47-.86-3.02-.86-4.65s.33-3.33.98-4.97c.66-1.65,1.63-3.02,2.92-4.11,1.29-1.09,2.58-1.84,3.87-2.23,1.29-.4,2.51-.6,3.66-.6,1.59,0,3.17.34,4.74,1.01,1.57.68,2.89,1.68,3.96,3.01s1.8,2.67,2.17,4.02c.38,1.35.57,2.64.57,3.87,0,1.63-.29,3.18-.86,4.65Z"/>
      <polygon class="cls-1" points="674.12 426.64 664.29 426.64 664.29 466.56 693.78 466.56 693.78 457.98 674.12 457.98 674.12 426.64"/>
      <rect class="cls-1" x="705.22" y="426.64" width="9.83" height="39.92"/>
      <polygon class="cls-1" points="725.66 435.22 738.59 435.22 738.59 466.56 748.36 466.56 748.36 435.22 761.3 435.22 761.3 426.64 725.66 426.64 725.66 435.22"/>
      <polygon class="cls-1" points="781.74 450.59 801.1 450.59 801.1 442.61 781.74 442.61 781.74 435.1 802.83 435.1 802.83 426.64 771.9 426.64 771.9 466.56 803.01 466.56 803.01 458.1 781.74 458.1 781.74 450.59"/>
      <path class="cls-1" d="M842.31,455.03c-1.17,1.37-2.49,2.3-3.96,2.77-1.47.48-2.8.71-3.99.71-1.55,0-3.02-.3-4.41-.89-1.39-.6-2.6-1.44-3.64-2.53-1.03-1.09-1.85-2.37-2.44-3.84-.6-1.47-.89-3.02-.89-4.65s.3-3.18.89-4.65c.6-1.47,1.41-2.74,2.44-3.81,1.03-1.07,2.24-1.91,3.64-2.5,1.39-.6,2.86-.89,4.41-.89,1.83,0,3.48.36,4.95,1.07s2.65,1.71,3.55,2.98c.89,1.27,1.54,2.78,1.94,4.53l9.65-2.26c-.95-4.65-3.3-8.36-7.03-11.14-3.73-2.78-8.08-4.17-13.05-4.17-2.86,0-5.59.54-8.19,1.61-2.6,1.07-4.88,2.56-6.82,4.47-1.95,1.91-3.47,4.14-4.56,6.7-1.09,2.56-1.64,5.25-1.64,8.07s.55,5.52,1.64,8.1c1.09,2.58,2.61,4.83,4.56,6.73,1.95,1.91,4.22,3.39,6.82,4.44,2.6,1.05,5.33,1.58,8.19,1.58,2.5,0,4.89-.36,7.15-1.07,2.26-.71,4.29-1.76,6.08-3.13,1.79-1.37,3.28-3.05,4.47-5.03,1.19-1.99,2.01-4.19,2.44-6.61l-9.65-1.91c-.52,2.18-1.36,3.96-2.53,5.33Z"/>
      <polygon class="cls-1" points="892.63 426.64 892.63 442.19 875.83 442.19 875.83 426.64 866 426.64 866 466.56 875.83 466.56 875.83 450.77 892.63 450.77 892.63 466.56 902.4 466.56 902.4 426.64 892.63 426.64"/>
    </g>
    <g>
      <polygon class="cls-1" points="412.66 487.03 408.83 479.81 407.93 479.81 407.93 488.58 408.93 488.58 408.93 482.01 412.39 488.58 412.93 488.58 416.39 482.01 416.39 488.58 417.38 488.58 417.38 479.81 416.48 479.81 412.66 487.03"/>
      <path class="cls-1" d="M426.53,479.81l-3.93,8.77h1.11l.98-2.22h4.62l.98,2.22h1.11l-3.93-8.77h-.96ZM425.1,485.42l1.91-4.33,1.9,4.33h-3.81Z"/>
      <path class="cls-1" d="M441.66,484.19c-.35-.16-.68-.27-.98-.33l-1.91-.43c-.43-.09-.75-.24-.98-.44-.23-.21-.34-.5-.34-.86s.11-.65.32-.9c.21-.25.47-.43.79-.53.32-.1.61-.15.88-.15s.58.05.91.16c.33.11.62.3.88.58.26.28.42.49.49.87h1.03c-.15-.72-.52-1.41-1.11-1.85-.59-.44-1.32-.66-2.18-.66-.45,0-.87.06-1.26.18-.39.12-.72.29-1,.52-.27.22-.49.49-.64.8-.15.31-.22.65-.22,1.01,0,1.18.7,1.92,2.11,2.24l1.98.43c.5.11.86.27,1.09.48.23.2.34.5.34.9,0,.49-.19.88-.57,1.18-.38.3-.9.45-1.56.45-.69,0-1.26-.17-1.73-.51-.46-.34-.74-.59-.84-1.19h-1.09c.05.4.18.77.38,1.09.2.33.46.6.78.83.32.23.68.4,1.1.52.42.12.85.18,1.3.18.6,0,1.12-.09,1.54-.26.43-.17.77-.38,1.02-.63.25-.25.43-.53.54-.83.11-.3.16-.6.16-.88,0-.5-.12-.91-.35-1.23-.24-.32-.53-.56-.88-.72Z"/>
      <polygon class="cls-1" points="447.6 480.74 450.86 480.74 450.86 488.58 451.91 488.58 451.91 480.74 455.15 480.74 455.15 479.81 447.6 479.81 447.6 480.74"/>
      <polygon class="cls-1" points="461.6 484.64 466.57 484.64 466.57 483.71 461.6 483.71 461.6 480.74 466.95 480.74 466.95 479.81 460.57 479.81 460.57 488.58 466.97 488.58 466.97 487.64 461.6 487.64 461.6 484.64"/>
      <path class="cls-1" d="M476.9,484.82c.52,0,.97-.08,1.35-.25.37-.17.68-.37.9-.62.23-.25.39-.52.48-.8.09-.29.14-.57.14-.84,0-.37-.07-.7-.2-1.01-.14-.31-.33-.58-.59-.8s-.56-.39-.92-.51-.74-.18-1.16-.18h-4.06v8.77h1.03v-3.76h1.61l3.35,3.76h1.3l-3.39-3.76h.16ZM473.87,483.88v-3.14h3.02c.55,0,.99.14,1.33.43.34.29.5.67.5,1.14s-.17.85-.5,1.14c-.34.29-.78.43-1.33.43h-3.02Z"/>
      <rect class="cls-1" x="485.54" y="479.81" width="1.03" height="8.77"/>
      <polygon class="cls-1" points="499.42 486.85 493.69 479.81 492.8 479.81 492.8 488.58 493.83 488.58 493.83 481.61 499.57 488.58 500.46 488.58 500.46 479.81 499.42 479.81 499.42 486.85"/>
      <path class="cls-1" d="M510.34,483.76v.94h3.87c-.05.44-.17.84-.35,1.22-.18.37-.42.7-.72.98-.3.28-.64.49-1.03.65-.39.15-.82.23-1.27.23-.48,0-.94-.09-1.38-.27-.44-.18-.82-.44-1.14-.77-.32-.33-.57-.71-.76-1.15-.18-.44-.28-.9-.28-1.39s.09-.95.27-1.39.43-.82.75-1.15c.32-.33.69-.58,1.13-.77.43-.18.88-.27,1.35-.27.52,0,1,.09,1.47.27.46.18.83.42,1.1.72.28.3.36.4.5.71h1.06c-.31-.79-.84-1.55-1.58-2-.74-.45-1.59-.67-2.55-.67-.61,0-1.2.12-1.75.35-.56.23-1.05.56-1.46.98s-.75.91-.98,1.47c-.23.56-.35,1.15-.35,1.77s.11,1.21.35,1.77c.23.56.56,1.05.98,1.47s.91.74,1.47.98c.56.23,1.15.35,1.77.35s1.21-.12,1.76-.35c.55-.23,1.01-.55,1.41-.97.39-.41.7-.9.91-1.46.21-.56.32-1.15.32-1.77v-.44h-4.87Z"/>
      <path class="cls-1" d="M529.89,481.65c.32-.33.7-.58,1.13-.77.43-.18.88-.27,1.36-.27.76,0,1.43.2,2,.59.57.39.97.65,1.18,1.35h1c-.27-.88-.78-1.59-1.54-2.11-.75-.53-1.63-.79-2.64-.79-.62,0-1.21.12-1.77.35-.56.23-1.05.56-1.46.98s-.75.91-.98,1.47c-.23.56-.35,1.15-.35,1.77s.11,1.21.35,1.77c.23.56.56,1.05.98,1.47s.91.74,1.46.98c.56.23,1.15.35,1.77.35,1,0,1.88-.27,2.64-.8.76-.54,1.27-1.26,1.54-2.17h-1c-.23.71-.62,1.02-1.18,1.41-.56.39-1.23.59-2,.59-.47,0-.92-.09-1.35-.27-.43-.18-.81-.44-1.13-.77-.32-.33-.57-.71-.75-1.15s-.27-.9-.27-1.39.09-.95.27-1.39.43-.82.75-1.15Z"/>
      <polygon class="cls-1" points="543.39 479.81 542.36 479.81 542.36 488.58 548.42 488.58 548.42 487.64 543.39 487.64 543.39 479.81"/>
      <path class="cls-1" d="M560.96,480.97c-.41-.41-.9-.74-1.46-.98-.56-.24-1.14-.35-1.75-.35s-1.21.12-1.77.35c-.56.24-1.05.56-1.46.98-.41.42-.74.9-.97,1.47-.23.56-.35,1.15-.35,1.76s.11,1.21.35,1.77c.23.56.55,1.05.97,1.47.41.42.9.74,1.46.98.56.23,1.15.35,1.77.35s1.2-.12,1.75-.35c.56-.23,1.05-.56,1.46-.98.41-.42.74-.91.97-1.47.23-.56.35-1.15.35-1.77s-.12-1.2-.35-1.76c-.23-.56-.55-1.05-.97-1.47ZM560.96,485.59c-.18.44-.43.82-.75,1.15-.32.33-.69.58-1.12.76-.43.18-.88.27-1.35.27s-.96-.1-1.44-.31c-.48-.21-.88-.51-1.21-.91-.33-.4-.55-.8-.67-1.2s-.18-.79-.18-1.15c0-.49.09-.95.27-1.39s.43-.82.75-1.15c.32-.33.69-.58,1.13-.77.43-.18.88-.27,1.35-.27s.92.09,1.35.27c.43.18.8.44,1.12.77.32.33.57.71.75,1.15.18.44.27.9.27,1.39s-.09.95-.27,1.39Z"/>
      <path class="cls-1" d="M574.28,484.74c0,1.69-.94,3.01-2.62,3.01s-2.66-1.3-2.66-3.01v-4.93h-1.03v4.93c0,.58.09,1.13.26,1.62.48,1.36,1.62,2.38,3.43,2.38.53,0,1.03-.1,1.48-.29,1.32-.56,2.17-1.86,2.17-3.72v-4.93h-1.03v4.93Z"/>
      <path class="cls-1" d="M587.93,481.06c-.42-.39-.93-.7-1.54-.92-.61-.22-1.29-.33-2.03-.33h-2.91v8.77h2.91c.74,0,1.42-.11,2.03-.33s1.13-.53,1.54-.93c.42-.4.74-.86.96-1.4.22-.54.33-1.11.33-1.72s-.11-1.19-.33-1.73c-.22-.54-.54-1.01-.96-1.4ZM587.91,485.55c-.17.42-.42.79-.75,1.1s-.73.55-1.21.73c-.48.17-1.02.26-1.61.26h-1.86v-6.9h1.86c.59,0,1.13.09,1.61.26.48.17.88.42,1.21.73s.58.68.75,1.11c.17.42.26.87.26,1.36s-.09.93-.26,1.35Z"/>
      <path class="cls-1" d="M605.91,483.76v.94h3.87c-.05.44-.17.84-.35,1.22-.18.37-.42.7-.72.98-.3.28-.64.49-1.03.65-.39.15-.82.23-1.27.23-.48,0-.94-.09-1.37-.27-.44-.18-.82-.44-1.14-.77-.32-.33-.58-.71-.76-1.15s-.27-.9-.27-1.39.09-.95.27-1.39.43-.82.75-1.15c.32-.33.69-.58,1.13-.77.43-.18.88-.27,1.36-.27.51,0,1,.09,1.47.27.46.18.83.42,1.11.72.28.3.36.4.5.71h1.06c-.31-.79-.84-1.55-1.58-2-.74-.45-1.59-.67-2.55-.67-.61,0-1.2.12-1.75.35s-1.05.56-1.47.98c-.42.42-.74.91-.98,1.47-.23.56-.35,1.15-.35,1.77s.11,1.21.35,1.77c.23.56.56,1.05.98,1.47.42.42.91.74,1.47.98s1.15.35,1.77.35,1.21-.12,1.76-.35c.55-.23,1.01-.55,1.41-.97.39-.41.7-.9.91-1.46.21-.56.32-1.15.32-1.77v-.44h-4.87Z"/>
      <path class="cls-1" d="M623.91,480.97c-.42-.41-.9-.74-1.46-.98-.56-.24-1.14-.35-1.75-.35s-1.21.12-1.77.35c-.56.24-1.05.56-1.46.98s-.74.9-.97,1.47c-.23.56-.35,1.15-.35,1.76s.11,1.21.35,1.77c.23.56.55,1.05.97,1.47.41.42.9.74,1.46.98s1.15.35,1.77.35,1.2-.12,1.75-.35c.56-.23,1.05-.56,1.46-.98.41-.42.74-.91.97-1.47.23-.56.35-1.15.35-1.77s-.12-1.2-.35-1.76c-.23-.56-.55-1.05-.97-1.47ZM623.91,485.59c-.18.44-.43.82-.75,1.15-.32.33-.69.58-1.12.76-.43.18-.88.27-1.35.27s-.96-.1-1.44-.31c-.48-.21-.88-.51-1.21-.91-.33-.4-.55-.8-.67-1.2-.12-.4-.18-.79-.18-1.15,0-.49.09-.95.27-1.39s.43-.82.75-1.15c.32-.33.69-.58,1.13-.77.43-.18.88-.27,1.36-.27s.92.09,1.35.27c.43.18.8.44,1.12.77.32.33.57.71.75,1.15s.27.9.27,1.39-.09.95-.27,1.39Z"/>
      <polygon class="cls-1" points="634.11 487.16 630.92 479.81 629.79 479.81 633.61 488.58 634.61 488.58 638.43 479.81 637.3 479.81 634.11 487.16"/>
      <polygon class="cls-1" points="644.78 484.64 649.76 484.64 649.76 483.71 644.78 483.71 644.78 480.74 650.14 480.74 650.14 479.81 643.75 479.81 643.75 488.58 650.15 488.58 650.15 487.64 644.78 487.64 644.78 484.64"/>
      <path class="cls-1" d="M660.08,484.82c.52,0,.97-.08,1.35-.25.38-.17.68-.37.9-.62.23-.25.39-.52.48-.8.09-.29.14-.57.14-.84,0-.37-.07-.7-.2-1.01s-.33-.58-.59-.8c-.26-.22-.56-.39-.92-.51s-.74-.18-1.16-.18h-4.06v8.77h1.03v-3.76h1.61l3.35,3.76h1.3l-3.39-3.76h.16ZM657.06,483.88v-3.14h3.02c.55,0,.99.14,1.33.43s.5.67.5,1.14-.17.85-.5,1.14c-.34.29-.78.43-1.33.43h-3.02Z"/>
      <polygon class="cls-1" points="675.35 486.85 669.62 479.81 668.73 479.81 668.73 488.58 669.76 488.58 669.76 481.61 675.49 488.58 676.38 488.58 676.38 479.81 675.35 479.81 675.35 486.85"/>
      <path class="cls-1" d="M685.37,479.81l-3.93,8.77h1.11l.98-2.22h4.62l.98,2.22h1.11l-3.93-8.77h-.96ZM683.94,485.42l1.91-4.33,1.9,4.33h-3.81Z"/>
      <polygon class="cls-1" points="702.09 486.85 696.36 479.81 695.47 479.81 695.47 488.58 696.5 488.58 696.5 481.61 702.24 488.58 703.13 488.58 703.13 479.81 702.09 479.81 702.09 486.85"/>
      <path class="cls-1" d="M710.99,481.65c.32-.33.7-.58,1.13-.77.43-.18.88-.27,1.36-.27.76,0,1.43.2,2,.59.57.39.97.65,1.18,1.35h1c-.27-.88-.78-1.59-1.54-2.11-.75-.53-1.63-.79-2.64-.79-.62,0-1.21.12-1.77.35-.56.23-1.05.56-1.46.98s-.75.91-.98,1.47c-.23.56-.35,1.15-.35,1.77s.11,1.21.35,1.77c.23.56.56,1.05.98,1.47s.91.74,1.46.98c.56.23,1.15.35,1.77.35,1,0,1.88-.27,2.64-.8.76-.54,1.27-1.26,1.54-2.17h-1c-.23.71-.62,1.02-1.18,1.41-.56.39-1.23.59-2,.59-.47,0-.92-.09-1.35-.27-.43-.18-.81-.44-1.13-.77-.32-.33-.57-.71-.75-1.15s-.27-.9-.27-1.39.09-.95.27-1.39.43-.82.75-1.15Z"/>
      <polygon class="cls-1" points="724.49 484.64 729.46 484.64 729.46 483.71 724.49 483.71 724.49 480.74 729.84 480.74 729.84 479.81 723.46 479.81 723.46 488.58 729.86 488.58 729.86 487.64 724.49 487.64 724.49 484.64"/>
      <path class="cls-1" d="M735.91,481.48c-.19,0-.35.07-.48.2-.13.14-.2.29-.2.46s.06.34.2.47c.13.13.29.19.48.19s.35-.06.49-.19c.13-.13.2-.28.2-.47s-.07-.33-.2-.46c-.13-.14-.29-.2-.49-.2Z"/>
      <path class="cls-1" d="M735.91,485.92c-.19,0-.35.07-.48.2-.13.14-.2.29-.2.47s.06.34.2.46c.13.13.29.19.48.19s.35-.06.49-.19c.13-.13.2-.28.2-.46s-.07-.33-.2-.47c-.13-.14-.29-.2-.49-.2Z"/>
      <path class="cls-1" d="M754.67,484.19c-.35-.16-.68-.27-.98-.33l-1.91-.43c-.43-.09-.75-.24-.98-.44-.23-.21-.34-.5-.34-.86s.11-.65.31-.9c.21-.25.47-.43.79-.53.32-.1.61-.15.88-.15s.58.05.91.16c.33.11.62.3.88.58.26.28.42.49.49.87h1.03c-.15-.72-.52-1.41-1.11-1.85-.59-.44-1.32-.66-2.18-.66-.45,0-.87.06-1.26.18-.39.12-.72.29-.99.52s-.49.49-.64.8-.22.65-.22,1.01c0,1.18.7,1.92,2.11,2.24l1.98.43c.5.11.86.27,1.09.48.23.2.34.5.34.9,0,.49-.19.88-.58,1.18-.38.3-.9.45-1.56.45-.69,0-1.27-.17-1.73-.51-.46-.34-.74-.59-.84-1.19h-1.09c.05.4.18.77.38,1.09.2.33.46.6.78.83.32.23.69.4,1.1.52s.85.18,1.3.18c.6,0,1.12-.09,1.55-.26s.77-.38,1.02-.63c.25-.25.43-.53.54-.83.11-.3.16-.6.16-.88,0-.5-.12-.91-.35-1.23-.24-.32-.53-.56-.88-.72Z"/>
      <path class="cls-1" d="M763.3,481.65c.32-.33.7-.58,1.13-.77.43-.18.88-.27,1.36-.27.76,0,1.43.2,2,.59.57.39.97.65,1.18,1.35h1c-.27-.88-.78-1.59-1.54-2.11-.75-.53-1.63-.79-2.64-.79-.62,0-1.21.12-1.77.35-.56.23-1.05.56-1.46.98s-.75.91-.98,1.47c-.23.56-.35,1.15-.35,1.77s.11,1.21.35,1.77c.23.56.56,1.05.98,1.47s.91.74,1.46.98c.56.23,1.15.35,1.77.35,1,0,1.88-.27,2.64-.8.76-.54,1.27-1.26,1.54-2.17h-1c-.23.71-.62,1.02-1.18,1.41-.56.39-1.23.59-2,.59-.47,0-.92-.09-1.35-.27-.43-.18-.81-.44-1.13-.77-.32-.33-.57-.71-.75-1.15s-.27-.9-.27-1.39.09-.95.27-1.39.43-.82.75-1.15Z"/>
      <rect class="cls-1" x="775.76" y="479.81" width="1.03" height="8.77"/>
      <polygon class="cls-1" points="784.05 484.64 789.03 484.64 789.03 483.71 784.05 483.71 784.05 480.74 789.41 480.74 789.41 479.81 783.02 479.81 783.02 488.58 789.42 488.58 789.42 487.64 784.05 487.64 784.05 484.64"/>
      <polygon class="cls-1" points="801.91 486.85 796.18 479.81 795.29 479.81 795.29 488.58 796.33 488.58 796.33 481.61 802.06 488.58 802.95 488.58 802.95 479.81 801.91 479.81 801.91 486.85"/>
      <polygon class="cls-1" points="808.35 480.74 811.61 480.74 811.61 488.58 812.66 488.58 812.66 480.74 815.9 480.74 815.9 479.81 808.35 479.81 808.35 480.74"/>
      <rect class="cls-1" x="821.31" y="479.81" width="1.03" height="8.77"/>
      <polygon class="cls-1" points="828.57 488.58 829.6 488.58 829.6 484.73 834.39 484.73 834.39 483.8 829.6 483.8 829.6 480.74 834.85 480.74 834.85 479.81 828.57 479.81 828.57 488.58"/>
      <rect class="cls-1" x="840.23" y="479.81" width="1.03" height="8.77"/>
      <path class="cls-1" d="M849.12,481.65c.32-.33.7-.58,1.13-.77.43-.18.88-.27,1.36-.27.76,0,1.43.2,2,.59.57.39.97.65,1.19,1.35h.99c-.27-.88-.78-1.59-1.54-2.11s-1.63-.79-2.64-.79c-.62,0-1.21.12-1.77.35s-1.05.56-1.47.98c-.42.42-.74.91-.98,1.47-.23.56-.35,1.15-.35,1.77s.11,1.21.35,1.77c.23.56.56,1.05.98,1.47.42.42.91.74,1.47.98s1.15.35,1.77.35c1,0,1.88-.27,2.64-.8.75-.54,1.27-1.26,1.54-2.17h-.99c-.23.71-.62,1.02-1.19,1.41-.56.39-1.23.59-2,.59-.47,0-.92-.09-1.36-.27-.43-.18-.81-.44-1.13-.77-.32-.33-.57-.71-.75-1.15-.18-.44-.27-.9-.27-1.39s.09-.95.27-1.39c.18-.44.43-.82.75-1.15Z"/>
      <path class="cls-1" d="M864.26,479.81l-3.93,8.77h1.11l.98-2.22h4.62l.98,2.22h1.11l-3.93-8.77h-.95ZM862.83,485.42l1.91-4.33,1.9,4.33h-3.81Z"/>
      <polygon class="cls-1" points="875.39 479.81 874.36 479.81 874.36 488.58 880.42 488.58 880.42 487.64 875.39 487.64 875.39 479.81"/>
      <polygon class="cls-1" points="886.99 479.81 885.96 479.81 885.96 488.58 892.02 488.58 892.02 487.64 886.99 487.64 886.99 479.81"/>
      <polygon class="cls-1" points="902.2 479.81 899.21 484.48 896.23 479.81 895.08 479.81 898.7 485.51 898.7 488.58 899.74 488.58 899.74 485.5 903.39 479.81 902.2 479.81"/>
    </g>
    <path class="cls-1" d="M490.82,440.95h8.45c.37,1.54,1.74,2.68,3.38,2.68,1.93,0,3.49-1.56,3.49-3.49s-1.56-3.49-3.49-3.49c-1.65,0-3.02,1.15-3.38,2.68h-8.45v-14.73h8.45c.37,1.54,1.74,2.68,3.39,2.68,1.93,0,3.49-1.56,3.49-3.49s-1.56-3.49-3.49-3.49c-1.65,0-3.02,1.15-3.38,2.68h-8.45v-4.86c1.54-.37,2.68-1.74,2.68-3.38,0-1.93-1.56-3.49-3.49-3.49s-3.49,1.56-3.49,3.49c0,1.65,1.15,3.02,2.68,3.38v4.86h-11.68v-4.86c1.54-.37,2.68-1.74,2.68-3.38,0-1.93-1.56-3.49-3.49-3.49s-3.49,1.56-3.49,3.49c0,1.65,1.15,3.02,2.68,3.38v4.86h-62.36v-4.86c1.54-.37,2.68-1.74,2.68-3.38,0-1.93-1.56-3.49-3.49-3.49s-3.49,1.56-3.49,3.49c0,1.65,1.15,3.02,2.68,3.38v4.86h-8.45c-.37-1.54-1.74-2.68-3.38-2.68-1.93,0-3.49,1.56-3.49,3.49s1.56,3.49,3.49,3.49c1.65,0,3.02-1.15,3.38-2.68h8.45v14.73h-8.45c-.37-1.54-1.74-2.68-3.38-2.68-1.93,0-3.49,1.56-3.49,3.49s1.56,3.49,3.49,3.49c1.65,0,3.02-1.15,3.38-2.68h8.45v6.47h-8.45c-.37-1.54-1.74-2.68-3.38-2.68-1.93,0-3.49,1.56-3.49,3.49s1.56,3.49,3.49,3.49c1.65,0,3.02-1.15,3.38-2.68h8.45v16.5h-8.45c-.37-1.54-1.74-2.68-3.38-2.68-1.93,0-3.49,1.56-3.49,3.49s1.56,3.49,3.49,3.49c1.65,0,3.02-1.15,3.38-2.68h95.79c.37,1.54,1.74,2.68,3.38,2.68,1.93,0,3.49-1.56,3.49-3.49s-1.56-3.49-3.49-3.49c-1.65,0-3.02,1.15-3.38,2.68h-8.45v-16.5h8.45c.37,1.54,1.74,2.68,3.39,2.68,1.93,0,3.49-1.56,3.49-3.49s-1.56-3.49-3.49-3.49c-1.65,0-3.02,1.15-3.38,2.68h-8.45v-6.47ZM452,456.59c-6.95,0-13.57,3.26-18.39,8.94h-20.06v-.19c7.1-8.77,16.53-14.49,26.73-16.32h35.63v16.5h-21.28v-8.94h-2.63ZM475.91,439.33h-42.33c5.88-7.31,13.45-12.41,21.75-14.73h20.58v14.73Z"/>
  </g>
</svg>