<svg xmlns="http://www.w3.org/2000/svg" viewBox="0 0 256 256" width="256" height="256">
  <!-- PolicyCortex Logo - Shield with AI Brain -->
  <defs>
    <linearGradient id="cortex-gradient" x1="0%" y1="0%" x2="100%" y2="100%">
      <stop offset="0%" style="stop-color:#0078D4;stop-opacity:1" />
      <stop offset="100%" style="stop-color:#005A9E;stop-opacity:1" />
    </linearGradient>
    <linearGradient id="brain-gradient" x1="0%" y1="0%" x2="100%" y2="100%">
      <stop offset="0%" style="stop-color:#40E0D0;stop-opacity:1" />
      <stop offset="100%" style="stop-color:#0078D4;stop-opacity:1" />
    </linearGradient>
  </defs>
  
  <!-- Shield Background -->
  <path d="M128 20 C80 20 40 40 40 80 L40 140 C40 200 88 236 128 236 C168 236 216 200 216 140 L216 80 C216 40 176 20 128 20 Z" 
        fill="url(#cortex-gradient)" 
        stroke="#003050" 
        stroke-width="2"/>
  
  <!-- AI Brain Network -->
  <g transform="translate(128, 128)">
    <!-- Central Node -->
    <circle cx="0" cy="0" r="12" fill="#FFFFFF" opacity="0.9"/>
    
    <!-- Neural Connections -->
    <path d="M0,0 L-30,-30" stroke="url(#brain-gradient)" stroke-width="3" opacity="0.7"/>
    <path d="M0,0 L30,-30" stroke="url(#brain-gradient)" stroke-width="3" opacity="0.7"/>
    <path d="M0,0 L-40,0" stroke="url(#brain-gradient)" stroke-width="3" opacity="0.7"/>
    <path d="M0,0 L40,0" stroke="url(#brain-gradient)" stroke-width="3" opacity="0.7"/>
    <path d="M0,0 L-30,30" stroke="url(#brain-gradient)" stroke-width="3" opacity="0.7"/>
    <path d="M0,0 L30,30" stroke="url(#brain-gradient)" stroke-width="3" opacity="0.7"/>
    <path d="M0,0 L0,-40" stroke="url(#brain-gradient)" stroke-width="3" opacity="0.7"/>
    <path d="M0,0 L0,40" stroke="url(#brain-gradient)" stroke-width="3" opacity="0.7"/>
    
    <!-- Outer Nodes -->
    <circle cx="-30" cy="-30" r="8" fill="#FFFFFF" opacity="0.8"/>
    <circle cx="30" cy="-30" r="8" fill="#FFFFFF" opacity="0.8"/>
    <circle cx="-40" cy="0" r="8" fill="#FFFFFF" opacity="0.8"/>
    <circle cx="40" cy="0" r="8" fill="#FFFFFF" opacity="0.8"/>
    <circle cx="-30" cy="30" r="8" fill="#FFFFFF" opacity="0.8"/>
    <circle cx="30" cy="30" r="8" fill="#FFFFFF" opacity="0.8"/>
    <circle cx="0" cy="-40" r="8" fill="#FFFFFF" opacity="0.8"/>
    <circle cx="0" cy="40" r="8" fill="#FFFFFF" opacity="0.8"/>
    
    <!-- Secondary Connections -->
    <path d="M-30,-30 L0,-40" stroke="#40E0D0" stroke-width="2" opacity="0.5"/>
    <path d="M30,-30 L0,-40" stroke="#40E0D0" stroke-width="2" opacity="0.5"/>
    <path d="M-30,30 L0,40" stroke="#40E0D0" stroke-width="2" opacity="0.5"/>
    <path d="M30,30 L0,40" stroke="#40E0D0" stroke-width="2" opacity="0.5"/>
  </g>
  
  <!-- Policy Symbol (Check Mark) -->
  <path d="M88 110 L108 130 L168 70" stroke="#FFFFFF" stroke-width="8" fill="none" stroke-linecap="round" stroke-linejoin="round" opacity="0.9"/>
</svg>